HIERARCHY
ROOT Hips
{
	OFFSET 0.000000 71.427986 0.000000
	CHANNELS 6 Xposition Yposition Zposition Xrotation Yrotation Zrotation
	JOINT Pelvis
	{
		OFFSET 0.000000 0.000000 0.000000
		CHANNELS 3 Xrotation Yrotation Zrotation
		JOINT LeftUpLeg
		{
			OFFSET 6.797100 -2.508499 -1.318700
			CHANNELS 3 Xrotation Yrotation Zrotation
			JOINT LeftLeg
			{
				OFFSET 0.069008 -29.241863 0.690200
				CHANNELS 3 Xrotation Yrotation Zrotation
				JOINT LeftFoot
				{
					OFFSET -0.069008 -29.568123 -0.266800
					CHANNELS 3 Xrotation Yrotation Zrotation
					JOINT LeftToeBase
					{
						OFFSET 3.145500 -8.631000 16.059900
						CHANNELS 3 Xrotation Yrotation Zrotation
						End Site
						{
							OFFSET 0.000000 18.501587 0.000000
						}
					}
				}
			}
			JOINT Left_ShortSleeve
			{
				OFFSET 0.265923 -10.480953 1.153800
				CHANNELS 3 Xrotation Yrotation Zrotation
				End Site
				{
					OFFSET 1.725763 19.823879 0.000000
				}
			}
		}
		JOINT RightUpLeg
		{
			OFFSET -6.797100 -2.508499 -1.318700
			CHANNELS 3 Xrotation Yrotation Zrotation
			JOINT RightLeg
			{
				OFFSET -0.082453 -29.241932 0.688000
				CHANNELS 3 Xrotation Yrotation Zrotation
				JOINT RightFoot
				{
					OFFSET 0.082453 -29.568058 -0.264600
					CHANNELS 3 Xrotation Yrotation Zrotation
					JOINT RightToeBase
					{
						OFFSET -3.115300 -8.682800 16.113400
						CHANNELS 3 Xrotation Yrotation Zrotation
						End Site
						{
							OFFSET 0.000000 18.567114 0.000000
						}
					}
				}
			}
			JOINT Right_ShortSleeve
			{
				OFFSET -0.265923 -10.480953 1.153800
				CHANNELS 3 Xrotation Yrotation Zrotation
				End Site
				{
					OFFSET -1.725766 19.823910 0.000000
				}
			}
		}
	}
	JOINT Spine
	{
		OFFSET 0.000000 13.368103 0.470500
		CHANNELS 3 Xrotation Yrotation Zrotation
		JOINT Spine1
		{
			OFFSET 0.147000 13.837402 0.538800
			CHANNELS 3 Xrotation Yrotation Zrotation
			JOINT Spine2
			{
				OFFSET 0.168000 16.242897 -1.435500
				CHANNELS 3 Xrotation Yrotation Zrotation
				JOINT Neck
				{
					OFFSET 0.217200 18.631500 -1.679100
					CHANNELS 3 Xrotation Yrotation Zrotation
					JOINT Head
					{
						OFFSET 0.000000 6.599396 1.385900
						CHANNELS 3 Xrotation Yrotation Zrotation
						JOINT Hat
						{
							OFFSET -0.532200 27.220596 -10.096100
							CHANNELS 3 Xrotation Yrotation Zrotation
							End Site
							{
								OFFSET 0.000000 22.029861 0.000000
							}
						}
						JOINT HairD
						{
							OFFSET -10.777400 17.437393 -1.325900
							CHANNELS 3 Xrotation Yrotation Zrotation
							JOINT HairD1
							{
								OFFSET -3.290299 -11.051193 1.062200
								CHANNELS 3 Xrotation Yrotation Zrotation
								End Site
								{
									OFFSET 0.000000 11.579437 0.000000
								}
							}
						}
						JOINT HairB
						{
							OFFSET -10.777400 17.437393 1.467900
							CHANNELS 3 Xrotation Yrotation Zrotation
							JOINT HairB1
							{
								OFFSET -1.561200 -12.956299 3.590200
								CHANNELS 3 Xrotation Yrotation Zrotation
								End Site
								{
									OFFSET 0.000000 13.534866 0.000000
								}
							}
						}
						JOINT HairA
						{
							OFFSET 9.713100 17.437393 1.467900
							CHANNELS 3 Xrotation Yrotation Zrotation
							JOINT HairA1
							{
								OFFSET 1.561200 -12.956299 3.590200
								CHANNELS 3 Xrotation Yrotation Zrotation
								End Site
								{
									OFFSET 0.000000 13.534866 0.000000
								}
							}
						}
						JOINT HairC
						{
							OFFSET 9.713100 17.437393 -1.325900
							CHANNELS 3 Xrotation Yrotation Zrotation
							JOINT HairC1
							{
								OFFSET 3.290300 -11.051193 1.062200
								CHANNELS 3 Xrotation Yrotation Zrotation
								End Site
								{
									OFFSET 0.000000 11.579437 0.000000
								}
							}
						}
					}
				}
				JOINT LeftShoulder
				{
					OFFSET 5.101800 15.108002 -2.763700
					CHANNELS 3 Xrotation Yrotation Zrotation
					JOINT LeftArm
					{
						OFFSET 9.825497 2.506317 -1.597400
						CHANNELS 3 Xrotation Yrotation Zrotation
						JOINT LeftForeArm
						{
							OFFSET 21.966244 0.000000 0.000000
							CHANNELS 3 Xrotation Yrotation Zrotation
							JOINT LeftHand
							{
								OFFSET 33.879036 0.000000 0.000000
								CHANNELS 3 Xrotation Yrotation Zrotation
								JOINT LeftHandThumb1
								{
									OFFSET 6.715286 -2.359680 3.363841
									CHANNELS 3 Xrotation Yrotation Zrotation
									JOINT LeftHandThumb2
									{
										OFFSET 2.507072 -1.447464 1.447461
										CHANNELS 3 Xrotation Yrotation Zrotation
										JOINT LeftHandThumb3
										{
											OFFSET 2.898338 -1.673355 1.673357
											CHANNELS 3 Xrotation Yrotation Zrotation
											End Site
											{
												OFFSET -0.295959 3.727692 -0.131651
											}
										}
									}
								}
								JOINT LeftHandIndex1
								{
									OFFSET 14.190811 -0.254547 3.840278
									CHANNELS 3 Xrotation Yrotation Zrotation
									JOINT LeftHandIndex2
									{
										OFFSET 3.551727 0.000000 -0.000000
										CHANNELS 3 Xrotation Yrotation Zrotation
										JOINT LeftHandIndex3
										{
											OFFSET 2.894196 0.000000 0.000000
											CHANNELS 3 Xrotation Yrotation Zrotation
											End Site
											{
												OFFSET -1.000603 2.690872 0.366626
											}
										}
									}
								}
								JOINT LeftHandMiddle1
								{
									OFFSET 13.776489 0.000000 0.000000
									CHANNELS 3 Xrotation Yrotation Zrotation
									JOINT LeftHandMiddle2
									{
										OFFSET 3.438232 0.000000 0.000000
										CHANNELS 3 Xrotation Yrotation Zrotation
										JOINT LeftHandMiddle3
										{
											OFFSET 3.691551 0.000000 0.000000
											CHANNELS 3 Xrotation Yrotation Zrotation
											End Site
											{
												OFFSET -1.082298 3.499527 0.457670
											}
										}
									}
								}
								JOINT LeftHandRing1
								{
									OFFSET 13.966164 -0.268127 -3.067488
									CHANNELS 3 Xrotation Yrotation Zrotation
									JOINT LeftHandRing2
									{
										OFFSET 3.162567 0.000000 0.000000
										CHANNELS 3 Xrotation Yrotation Zrotation
										JOINT LeftHandRing3
										{
											OFFSET 3.324348 0.000000 0.000000
											CHANNELS 3 Xrotation Yrotation Zrotation
											End Site
											{
												OFFSET -0.861900 3.184998 0.405154
											}
										}
									}
								}
								JOINT LeftHandPinky1
								{
									OFFSET 13.131393 -0.168503 -5.746925
									CHANNELS 3 Xrotation Yrotation Zrotation
									JOINT LeftHandPinky2
									{
										OFFSET 2.849182 0.000000 0.000000
										CHANNELS 3 Xrotation Yrotation Zrotation
										JOINT LeftHandPinky3
										{
											OFFSET 2.805038 0.000000 0.000000
											CHANNELS 3 Xrotation Yrotation Zrotation
											End Site
											{
												OFFSET -0.882500 2.642609 0.325652
											}
										}
									}
								}
							}
							JOINT Left_Sleeve
							{
								OFFSET 6.592125 -0.646545 0.805568
								CHANNELS 3 Xrotation Yrotation Zrotation
								End Site
								{
									OFFSET -0.000179 20.275787 -0.000000
								}
							}
						}
					}
				}
				JOINT RightShoulder
				{
					OFFSET -5.731700 15.108002 -2.763700
					CHANNELS 3 Xrotation Yrotation Zrotation
					JOINT RightArm
					{
						OFFSET -9.825497 2.506317 -1.597400
						CHANNELS 3 Xrotation Yrotation Zrotation
						JOINT RightForeArm
						{
							OFFSET -21.966242 0.000000 0.000000
							CHANNELS 3 Xrotation Yrotation Zrotation
							JOINT RightHand
							{
								OFFSET -33.879032 0.000000 0.000000
								CHANNELS 3 Xrotation Yrotation Zrotation
								JOINT RightHandThumb1
								{
									OFFSET -6.715286 -2.359680 3.363841
									CHANNELS 3 Xrotation Yrotation Zrotation
									JOINT RightHandThumb2
									{
										OFFSET -2.507072 -1.447464 1.447461
										CHANNELS 3 Xrotation Yrotation Zrotation
										JOINT RightHandThumb3
										{
											OFFSET -2.898338 -1.673355 1.673357
											CHANNELS 3 Xrotation Yrotation Zrotation
											End Site
											{
												OFFSET 0.295959 3.727692 -0.131651
											}
										}
									}
								}
								JOINT RightHandIndex1
								{
									OFFSET -14.190811 -0.254547 3.840278
									CHANNELS 3 Xrotation Yrotation Zrotation
									JOINT RightHandIndex2
									{
										OFFSET -3.551727 0.000000 -0.000000
										CHANNELS 3 Xrotation Yrotation Zrotation
										JOINT RightHandIndex3
										{
											OFFSET -2.894196 0.000000 0.000000
											CHANNELS 3 Xrotation Yrotation Zrotation
											End Site
											{
												OFFSET 1.000603 2.690872 0.366626
											}
										}
									}
								}
								JOINT RightHandMiddle1
								{
									OFFSET -13.776489 0.000000 0.000000
									CHANNELS 3 Xrotation Yrotation Zrotation
									JOINT RightHandMiddle2
									{
										OFFSET -3.438232 0.000000 0.000000
										CHANNELS 3 Xrotation Yrotation Zrotation
										JOINT RightHandMiddle3
										{
											OFFSET -3.691551 0.000000 0.000000
											CHANNELS 3 Xrotation Yrotation Zrotation
											End Site
											{
												OFFSET 1.082298 3.499527 0.457670
											}
										}
									}
								}
								JOINT RightHandRing1
								{
									OFFSET -13.966164 -0.268127 -3.067488
									CHANNELS 3 Xrotation Yrotation Zrotation
									JOINT RightHandRing2
									{
										OFFSET -3.162567 0.000000 0.000000
										CHANNELS 3 Xrotation Yrotation Zrotation
										JOINT RightHandRing3
										{
											OFFSET -3.324348 0.000000 0.000000
											CHANNELS 3 Xrotation Yrotation Zrotation
											End Site
											{
												OFFSET 0.861900 3.184998 0.405154
											}
										}
									}
								}
								JOINT RightHandPinky1
								{
									OFFSET -13.131393 -0.168503 -5.746925
									CHANNELS 3 Xrotation Yrotation Zrotation
									JOINT RightHandPinky2
									{
										OFFSET -2.849182 0.000000 0.000000
										CHANNELS 3 Xrotation Yrotation Zrotation
										JOINT RightHandPinky3
										{
											OFFSET -2.805038 0.000000 0.000000
											CHANNELS 3 Xrotation Yrotation Zrotation
											End Site
											{
												OFFSET 0.882500 2.642609 0.325652
											}
										}
									}
								}
							}
							JOINT Right_Sleeve
							{
								OFFSET -6.592125 -0.646545 0.805568
								CHANNELS 3 Xrotation Yrotation Zrotation
								End Site
								{
									OFFSET 0.000179 20.275787 -0.000000
								}
							}
						}
					}
				}
				JOINT Bind_Right_JacketString
				{
					OFFSET -3.534800 11.969597 7.200700
					CHANNELS 3 Xrotation Yrotation Zrotation
					JOINT Bind_Right_JacketString1
					{
						OFFSET -0.319900 -6.102600 2.794100
						CHANNELS 3 Xrotation Yrotation Zrotation
						End Site
						{
							OFFSET 0.000000 6.719452 0.000000
						}
					}
				}
				JOINT Bind_Left_JacketString
				{
					OFFSET 2.904800 11.969597 7.200700
					CHANNELS 3 Xrotation Yrotation Zrotation
					JOINT Bind_Left_JacketString1
					{
						OFFSET 0.364800 -5.904503 3.186800
						CHANNELS 3 Xrotation Yrotation Zrotation
						End Site
						{
							OFFSET 0.000000 6.719513 0.000000
						}
					}
				}
				JOINT HairE
				{
					OFFSET 5.915200 17.612701 -11.592200
					CHANNELS 3 Xrotation Yrotation Zrotation
					JOINT HairE1
					{
						OFFSET 0.289200 -7.171898 -1.284500
						CHANNELS 3 Xrotation Yrotation Zrotation
						End Site
						{
							OFFSET 0.000000 7.291756 0.000000
						}
					}
				}
				JOINT HairF
				{
					OFFSET -0.864800 17.612701 -11.592200
					CHANNELS 3 Xrotation Yrotation Zrotation
					JOINT HairF1
					{
						OFFSET 0.000000 -14.087097 -2.127501
						CHANNELS 3 Xrotation Yrotation Zrotation
						End Site
						{
							OFFSET 0.000000 14.246841 0.000000
						}
					}
				}
				JOINT HairG
				{
					OFFSET -8.087700 17.612701 -11.592200
					CHANNELS 3 Xrotation Yrotation Zrotation
					JOINT HairG1
					{
						OFFSET -0.293600 -6.081398 -0.910100
						CHANNELS 3 Xrotation Yrotation Zrotation
						End Site
						{
							OFFSET 0.000000 6.156120 0.000000
						}
					}
				}
			}
		}
	}
	JOINT Pouch
	{
		OFFSET 0.000000 4.394501 10.847300
		CHANNELS 3 Xrotation Yrotation Zrotation
		End Site
		{
			OFFSET 0.000000 21.880577 0.000000
		}
	}
	JOINT Bag
	{
		OFFSET -13.229000 4.813004 -0.593300
		CHANNELS 3 Xrotation Yrotation Zrotation
		End Site
		{
			OFFSET 0.000000 21.880577 0.000000
		}
	}
	JOINT OccupyGuyFacialAnim_Joint
	{
		OFFSET 1.000000 -70.206398 -1.655000
		CHANNELS 3 Xrotation Yrotation Zrotation
		End Site
		{
			OFFSET 0.000000 21.880577 0.000000
		}
	}
}
MOTION
Frames: 4
Frame Time: 0.033333
-0.192626 35.987953 1.384422 -4.193010 -36.760307 -6.649673 0.000000 0.000002 0.000000 -79.355713 -13.865977 41.240262 125.104163 -5.959076 -2.280121 -34.808560 2.341757 -6.804392 -0.000000 0.000000 0.000000 -0.000000 -0.000001 -0.000000 -38.948522 12.214619 -65.959977 106.047402 12.006146 2.171328 -20.467307 -7.832185 29.476706 0.000000 0.000000 0.000000 -0.000000 -0.000003 0.000001 35.206142 1.521218 -5.773212 21.527850 -4.024572 4.765626 -0.626908 -3.868260 11.606047 -1.125191 8.715610 -4.382724 -23.075907 26.932857 -5.500117 0.000003 -0.000000 -0.000000 0.000003 -0.000000 -0.000000 0.000003 -0.000000 -0.000000 0.000003 -0.000000 -0.000000 0.000001 -0.000001 0.000000 0.000003 -0.000000 -0.000000 0.000001 -0.000001 0.000000 0.000003 -0.000000 -0.000000 0.000003 -0.000000 -0.000000 10.386723 -24.507960 38.145773 -41.471580 15.925428 -8.402718 -95.732485 -10.978005 -97.826204 0.525414 -6.157419 -1.873965 4.766493 -0.870677 -14.442459 16.000731 13.128866 8.503786 0.000000 -0.000000 -0.000000 -3.658643 -7.654377 -82.960919 0.003369 -4.390310 -69.237648 -0.000001 0.000002 0.000002 -5.172233 2.976041 -88.478571 -0.070128 -4.900174 -78.558152 0.000001 0.000001 0.000001 -4.258296 4.028547 -92.368104 -1.139439 -0.639517 -64.963862 -0.000001 0.000001 -0.000002 -8.359569 8.672383 -87.699322 -0.046527 -0.068526 -75.940700 -0.000000 0.000000 -0.000001 0.000000 0.000000 -0.000000 3.281718 -2.664076 7.901279 -25.916615 -4.172297 42.854803 -14.329015 8.706306 5.218718 0.096744 -0.502666 -9.797626 24.918344 -21.323398 30.343051 9.003308 8.349362 -18.319742 0.000001 0.000002 0.000002 -0.186916 -2.971604 61.031941 0.006367 4.395206 66.066132 -0.000003 -0.000001 0.000005 -1.232100 -0.144915 68.230728 -0.090134 4.910170 84.519828 -0.000001 -0.000001 -0.000001 0.935099 -4.640859 79.106103 -0.731204 1.138148 73.233821 0.000001 0.000001 0.000000 -3.995150 0.093255 86.967200 -0.022761 0.056187 54.376362 -0.000000 0.000002 0.000003 -0.000002 0.000001 0.000001 -0.000001 0.000001 -0.000001 0.000001 0.000001 0.000001 -0.000001 0.000001 -0.000002 -0.000001 0.000001 -0.000002 -0.000001 0.000001 -0.000001 0.000001 0.000001 0.000001 -0.000001 0.000001 -0.000002 -0.000001 0.000001 -0.000002 -0.000001 0.000001 -0.000001 0.000001 0.000001 0.000001 0.000000 0.000002 0.000000 0.000000 0.000002 0.000000 0.000000 0.000002 0.000000 
-0.894169 36.299576 -0.218832 -2.944569 -36.837386 -4.352683 0.000000 -0.000000 -0.000000 -80.635082 -13.551935 41.043488 122.237396 -5.724482 -2.195600 -30.996122 2.361568 -8.023174 -0.000000 -0.000000 -0.000000 -0.000000 -0.000001 -0.000000 -41.600862 12.590060 -66.056235 108.195360 12.769289 1.693786 -23.827359 -7.812938 28.125956 0.000000 0.000000 0.000001 -0.000000 -0.000005 0.000000 31.964640 2.761435 -6.513509 20.569764 -3.416934 3.833618 4.949339 -2.908789 10.618936 0.379145 8.882607 -5.419374 -22.760618 24.269766 -6.618237 0.000001 0.000001 -0.000001 0.000001 0.000001 -0.000001 0.000001 0.000001 -0.000001 0.000001 0.000001 -0.000001 0.000001 0.000001 -0.000001 0.000001 0.000001 -0.000001 0.000001 0.000001 -0.000001 0.000001 0.000001 -0.000001 0.000001 0.000001 -0.000001 8.890447 -23.082798 36.463112 -39.434859 13.254126 -14.121891 -95.917023 -18.432942 -95.869300 0.466336 -9.334399 -2.791923 4.766494 -0.870678 -14.442461 15.979894 13.101356 8.523231 0.000000 0.000001 -0.000001 -3.655979 -7.665036 -82.853514 0.003321 -4.390324 -69.124752 0.000001 0.000000 -0.000004 -5.195625 2.941604 -88.362868 -0.069970 -4.900180 -78.434245 0.000000 0.000000 -0.000001 -4.267006 4.019468 -92.243843 -1.141196 -0.642361 -64.795559 -0.000000 -0.000001 0.000003 -8.393602 8.653851 -87.575381 -0.046373 -0.068503 -75.824198 -0.000000 -0.000001 0.000003 -0.000000 0.000000 -0.000000 3.062572 -2.215410 7.496892 -25.449925 -4.843451 45.583583 -16.633983 10.386873 5.512907 -0.773015 3.036051 -8.149259 24.918344 -21.323402 30.343051 8.974413 8.544339 -19.029238 -0.000000 0.000000 0.000000 -0.285574 -2.951152 60.225453 0.006482 4.395147 66.812227 -0.000001 0.000002 -0.000005 -1.266490 -0.149117 67.989581 -0.087247 4.908708 84.537204 -0.000001 0.000002 -0.000000 0.984004 -4.660203 78.812959 -0.730345 1.133340 73.722125 0.000000 0.000001 -0.000001 -3.681965 0.110351 86.433981 -0.026357 0.055493 54.120093 -0.000001 0.000003 -0.000003 0.000002 0.000001 0.000003 -0.000002 0.000000 0.000000 -0.000002 0.000000 -0.000000 -0.000002 0.000000 0.000000 -0.000002 0.000000 0.000000 -0.000002 0.000000 0.000000 -0.000002 0.000000 0.000000 -0.000002 0.000000 0.000000 -0.000002 0.000000 0.000000 -0.000002 0.000000 0.000000 -0.000002 0.000000 0.000000 0.000000 -0.000000 -0.000000 0.000000 -0.000000 -0.000000 0.000000 -0.000000 -0.000000 
-1.599691 36.597511 -1.819655 -1.693417 -36.886566 -2.052504 0.000000 -0.000003 -0.000000 -81.676495 -13.047468 40.881862 119.232741 -5.544480 -2.120462 -27.343226 2.417245 -9.206563 -0.000000 -0.000000 -0.000000 -0.000000 -0.000001 -0.000000 -44.389710 12.715038 -66.300011 110.109452 14.062540 1.180457 -27.286980 -7.723641 26.405366 0.000000 0.000000 0.000001 -0.000000 -0.000003 0.000002 29.539475 3.734376 -7.206274 19.585528 -2.934772 3.061264 9.044741 -2.171252 9.705054 1.514182 9.006456 -6.200467 -22.582023 22.367155 -7.434046 -0.000002 0.000000 -0.000000 -0.000002 0.000000 -0.000000 -0.000002 0.000000 0.000000 -0.000002 0.000000 -0.000000 -0.000002 0.000000 -0.000001 -0.000002 0.000000 -0.000000 -0.000002 0.000000 -0.000001 -0.000002 0.000000 -0.000000 -0.000002 0.000000 -0.000000 7.474867 -21.581622 34.810838 -37.465968 10.293549 -19.690728 -95.582111 -25.987772 -93.871750 0.298357 -12.527661 -3.767641 4.766496 -0.870678 -14.442462 15.959188 13.074524 8.543525 -0.000000 0.000001 -0.000001 -3.653346 -7.675700 -82.746109 0.003295 -4.390359 -69.011910 0.000003 0.000000 -0.000000 -5.219089 2.907075 -88.247137 -0.069841 -4.900128 -78.310386 0.000002 0.000001 0.000002 -4.275712 4.010344 -92.119629 -1.142925 -0.645237 -64.627202 -0.000001 0.000000 -0.000004 -8.427625 8.635193 -87.451495 -0.046247 -0.068470 -75.707702 -0.000000 0.000000 -0.000004 -0.000000 0.000001 -0.000000 2.831249 -1.758136 7.055902 -24.811193 -5.394730 48.423637 -19.119438 12.124530 5.953619 -1.973680 6.729357 -6.289927 24.918345 -21.323398 30.343044 8.945967 8.734509 -19.738654 0.000001 0.000001 0.000002 -0.386094 -2.927697 59.419292 0.006634 4.395080 67.558330 -0.000001 -0.000002 0.000002 -1.300747 -0.152974 67.748448 -0.084358 4.907247 84.554593 0.000002 -0.000004 0.000000 1.032727 -4.680203 78.519807 -0.729455 1.128554 74.210401 -0.000001 -0.000002 -0.000000 -3.368831 0.121635 85.900475 -0.026112 0.055325 53.863568 -0.000002 0.000001 0.000001 0.000003 -0.000003 -0.000004 0.000001 0.000001 -0.000002 -0.000001 0.000001 -0.000002 0.000001 0.000001 -0.000000 0.000001 0.000001 -0.000000 0.000001 0.000001 -0.000002 -0.000001 0.000001 -0.000002 0.000001 0.000001 -0.000000 0.000001 0.000001 -0.000000 0.000001 0.000001 -0.000002 -0.000001 0.000001 -0.000002 0.000000 -0.000003 -0.000000 0.000000 -0.000003 -0.000000 0.000000 -0.000003 -0.000000 
-2.414629 36.823250 -3.398421 -0.475602 -36.906633 0.138282 0.000000 0.000001 0.000000 -82.379089 -12.673403 40.949016 116.190670 -5.551756 -2.083839 -23.851516 2.458376 -10.490224 -0.000000 0.000000 0.000000 0.000000 0.000002 -0.000000 -47.150367 12.636518 -66.573348 112.055257 15.775780 0.674838 -30.867001 -7.610673 24.286307 0.000000 -0.000000 -0.000000 0.000001 -0.000000 0.000000 28.243778 4.339703 -7.797622 18.550632 -2.631881 2.514787 11.026674 -1.752557 8.891338 2.240771 9.078049 -6.657034 -22.473351 21.143952 -7.912051 0.000001 0.000000 -0.000000 0.000001 0.000000 -0.000000 0.000001 0.000000 0.000000 0.000001 0.000000 -0.000000 -0.000000 0.000000 -0.000000 0.000001 0.000000 -0.000000 -0.000000 0.000000 -0.000000 0.000001 0.000000 -0.000000 0.000001 0.000000 -0.000000 6.241213 -20.126378 33.315791 -35.753547 7.193086 -24.821695 -94.536512 -33.097485 -91.489694 0.046597 -15.631677 -4.464865 4.766493 -0.870676 -14.442461 15.939348 13.048300 8.562046 0.000001 -0.000000 0.000000 -3.650825 -7.685897 -82.643745 0.003287 -4.390342 -68.904308 0.000001 0.000001 -0.000003 -5.239714 2.873966 -88.136672 -0.069673 -4.900099 -78.192299 0.000000 -0.000000 0.000002 -4.283988 4.001625 -92.001214 -1.144580 -0.647983 -64.466761 0.000000 0.000001 0.000000 -8.460014 8.617329 -87.333435 -0.046103 -0.068439 -75.596623 0.000000 0.000000 0.000005 -0.000000 0.000000 -0.000003 2.643235 -1.309650 6.695229 -24.190853 -6.163669 50.990494 -21.377650 13.698884 6.551073 -3.144109 9.937944 -4.411911 24.918345 -21.323400 30.343051 8.935785 8.807328 -20.020386 0.000002 -0.000001 -0.000001 -0.509493 -2.890068 58.696453 0.006732 4.395043 68.073012 -0.000001 0.000003 -0.000003 -1.336977 -0.158601 67.536002 -0.079611 4.904848 84.583055 0.000001 0.000003 -0.000002 1.067822 -4.697977 78.227366 -0.728775 1.125020 74.568611 0.000000 0.000000 -0.000002 -3.156884 0.126455 85.530026 -0.028336 0.054931 53.711136 0.000001 -0.000000 -0.000001 0.000000 0.000004 0.000003 -0.000000 -0.000001 0.000001 -0.000000 0.000001 -0.000001 -0.000000 -0.000001 -0.000000 -0.000000 -0.000001 -0.000000 -0.000000 -0.000001 0.000001 -0.000000 0.000001 -0.000000 -0.000000 -0.000001 -0.000000 -0.000000 -0.000001 -0.000000 -0.000000 -0.000001 0.000001 -0.000000 0.000001 -0.000000 0.000000 0.000001 0.000000 0.000000 0.000001 0.000000 0.000000 0.000001 0.000000 
